<svg width="100px" height="100px" viewBox="0 0 100 100" version="1.1" xmlns="http://www.w3.org/2000/svg" xmlns:xlink="http://www.w3.org/1999/xlink">
    <g id="Page-1" stroke="none" stroke-width="1" fill="none" fill-rule="evenodd">
        <g id="Artboard" fill-rule="nonzero">
            <g id="Group" transform="translate(5.000000, 0.000000)">
                <path d="M72.3416918,48.4975695 L36.9833584,13.1420139 C34.2750251,10.4336806 29.8694695,10.4346065 27.1629881,13.1420139 C24.4546547,15.8494213 24.4546547,20.2549769 27.1629881,22.9623843 L38.950951,34.7503472 C37.5111362,34.9540509 36.1240992,35.6086806 35.0203955,36.7123843 C33.4166918,38.316088 32.7620621,40.5170139 33.0592844,42.6068287 C30.9685436,42.3105324 28.7676177,42.9651621 27.163914,44.5688658 C24.4565066,47.2762732 24.4565066,51.6818287 27.163914,54.3892361 L27.1648399,54.391088 C25.7250251,54.5938658 24.338914,55.2466435 23.2342844,56.3512732 C20.5268769,59.0586806 20.525951,63.466088 23.2342844,66.1725695 L38.9490992,81.8883102 C48.1555806,91.0929398 63.1352103,91.0929398 72.3407658,81.8883102 C81.5463214,72.6836806 81.5472473,57.7040509 72.3416918,48.4975695 Z" id="Path" fill="#7FAD7A" transform="translate(50.224389, 49.951447) rotate(-315.000000) translate(-50.224389, -49.951447) "></path>
                <path d="M47.7772366,22.274859 C46.1522366,20.649859 46.1522366,18.0072665 47.7772366,16.3822665 C49.4022366,14.7572665 52.0448292,14.7572665 53.6689032,16.3831924 L75.6198292,38.3304146 C72.4263107,37.9933776 69.1281625,38.8794887 66.4920514,40.9887479 L47.7772366,22.274859 Z" id="Path" fill="#FFFFFF" transform="translate(61.089158, 28.076190) rotate(-315.000000) translate(-61.089158, -28.076190) "></path>
                <path d="M45.0235823,34.1969735 C46.6485823,32.5719735 49.2911749,32.5719735 50.9171008,34.1969735 L53.8633971,37.1432698 L47.9698786,43.0349365 L45.0235823,40.0895661 C43.4004341,38.4645661 43.4004341,35.8210476 45.0235823,34.1969735 Z" id="Path" fill="#FFFFFF" transform="translate(48.834809, 38.006580) rotate(-315.000000) translate(-48.834809, -38.006580) "></path>
                <path d="M33.9131277,40.0888705 C32.2890537,38.4647964 32.2881277,35.8203519 33.9131277,34.1962779 C35.5381277,32.5712779 38.1807203,32.5712779 39.8057203,34.1962779 L42.7520166,37.1425742 L36.859424,43.0342408 L33.9131277,40.0888705 Z" id="Path" fill="#FFFFFF" transform="translate(37.723371, 38.005884) rotate(-315.000000) translate(-37.723371, -38.005884) "></path>
                <path d="M27.5936343,54.7674028 L19.7380787,46.9099954 C18.1121528,45.2859214 18.1121528,42.6442547 19.7371528,41.0183288 C21.3621528,39.3942547 24.0047454,39.3942547 25.6297454,41.0183288 L33.4862269,48.8757362 C35.110301,50.4998102 35.110301,53.1451806 33.4862269,54.7692547 C31.8621528,56.3933288 29.2186343,56.3933288 27.5936343,54.7674028 Z" id="Path" fill="#FFFFFF" transform="translate(26.611400, 47.893676) rotate(-315.000000) translate(-26.611400, -47.893676) "></path>
                <path d="M42.0351169,54.546787 C43.6591909,56.1727129 43.6591909,58.8143796 42.0351169,60.4384537 C40.4101169,62.0643796 37.7675243,62.0643796 36.1425243,60.4384537 L29.9073391,54.2032685 C33.0999317,54.5412315 36.3990058,53.6551203 39.0360428,51.546787 L42.0351169,54.546787 Z" id="Path" fill="#FFFFFF" transform="translate(36.580256, 56.602343) rotate(-315.000000) translate(-36.580256, -56.602343) "></path>
                <path d="M43.1963556,58.3941732 L46.1435778,55.4497288 C47.7676519,53.8256547 50.4102445,53.8256547 52.0352445,55.4497288 C53.6602445,57.0738028 53.6602445,59.7173213 52.0352445,61.3413954 C50.4111704,62.9654695 47.7685778,62.9654695 46.1435778,61.3413954 L43.1963556,58.3941732 Z" id="Path" fill="#FFFFFF" transform="translate(48.225175, 58.395562) rotate(-315.000000) translate(-48.225175, -58.395562) "></path>
                <path d="M30.2820812,79.7157787 L26.3496738,75.7842972 C27.7894886,75.5815195 29.1765257,74.9268898 30.2802294,73.8222602 C31.3857849,72.7176306 32.0394886,71.3324454 32.2431923,69.8926306 C34.9533775,72.6037417 39.3589331,72.6037417 42.0663405,69.8944824 C43.6709701,68.2907787 44.3246738,66.0898528 44.0274516,64.0009639 C46.1181923,64.2972602 48.3191183,63.6444824 49.9237479,62.0389269 C52.6302294,59.3315195 52.6320812,54.9259639 49.9237479,52.2176306 C47.2163405,49.5102232 42.809859,49.5102232 40.1024516,52.2194824 L36.1755997,56.1454084 C32.7181923,59.6028158 27.2830072,59.9065195 23.4765257,57.0583713 L38.1376368,42.3963343 C41.9293034,38.6055935 48.096896,38.6065195 51.8876368,42.3963343 L59.7450442,50.2528158 C67.8672664,58.3759639 67.8672664,71.5944824 59.7450442,79.7157787 C51.621896,87.8389269 38.4043034,87.8389269 30.2820812,79.7157787 Z" id="Path" fill="#FFFFFF" transform="translate(44.656618, 62.680883) rotate(-315.000000) translate(-44.656618, -62.680883) "></path>
            </g>
        </g>
    </g>
</svg>